<svg width="27" height="22" viewBox="0 0 27 22" fill="none" xmlns="http://www.w3.org/2000/svg">
<path d="M15.4 21.76V17.36C17.16 16.9333 18.52 16.16 19.48 15.04C20.44 13.8667 21.0267 12.4533 21.24 10.8H17V0.399995H26.2V7.2C26.2 11.0933 25.2933 14.32 23.48 16.88C21.6667 19.3867 18.9733 21.0133 15.4 21.76ZM0.600001 21.76V17.36C2.36 16.9333 3.72 16.16 4.68 15.04C5.64 13.8667 6.22667 12.4533 6.44 10.8H2.2V0.399995H11.4V7.2C11.4 11.0933 10.4933 14.32 8.68 16.88C6.86667 19.3867 4.17333 21.0133 0.600001 21.76Z" fill="#4F5F78"/>
</svg>
